<svg width="47" height="47" viewBox="0 0 47 47" xmlns="http://www.w3.org/2000/svg">
<path d="M7.83398 42.7546C16.8167 43.4987 13.5992 33.9559 21.9103 33.8678L25.5096 36.8718C26.4065 47.7169 13.1429 50.1354 7.83398 42.7546ZM35.3775 28.8212C38.172 24.4366 46.8277 9.72972 46.8277 9.72972C47.5171 8.5097 45.9857 7.2368 44.9164 8.13762C44.9164 8.13762 32.0465 19.3274 28.2493 22.8739C25.2492 25.6782 25.2355 26.9589 24.2642 31.5824L27.5541 34.3241C31.9153 32.5322 33.1705 32.2894 35.3775 28.8212V28.8212ZM11.8798 36.4116C13.1841 34.1909 15.303 30.5817 20.5884 30.0236C21.4383 25.9367 21.7771 23.5612 25.5762 20.0128C28.265 17.5022 35.2463 11.3786 39.3255 7.8145C37.3672 3.49057 31.2161 -0.0637565 23.3105 0.000867539C10.3387 0.108574 -0.103023 10.703 0.000767097 23.6807C0.0458081 29.3813 2.11769 34.5904 5.52319 38.6323C8.69172 39.4724 10.1761 39.3138 11.8798 36.4116V36.4116ZM25.494 5.40187C27.652 5.39012 29.4204 7.12714 29.4419 9.28519C29.4497 11.4452 27.7147 13.2194 25.5527 13.2331C23.3888 13.2508 21.6204 11.5098 21.6087 9.34785C21.5832 7.18197 23.3242 5.4195 25.494 5.40187V5.40187ZM13.75 9.32044C15.9081 9.30085 17.6823 11.0379 17.6901 13.2038C17.7136 15.3696 15.9668 17.1302 13.8127 17.1517C11.6468 17.1654 9.87845 15.4264 9.86475 13.2586C9.84712 11.0986 11.5822 9.33415 13.75 9.32044V9.32044ZM9.82754 21.0663C11.9934 21.0526 13.7637 22.7936 13.7755 24.9536C13.7951 27.1155 12.0522 28.8859 9.88629 28.8996C7.72236 28.9152 5.95989 27.1763 5.94814 25.0123C5.9266 22.8484 7.66949 21.0879 9.82754 21.0663ZM29.4713 37.7746C29.5124 42.1592 27.7441 45.0556 26.1774 46.7573L26.0873 46.8435C36.3782 45.6861 43.8335 38.415 38.3581 31.3944C35.6693 35.4031 33.3957 36.1766 29.4713 37.7746V37.7746Z" fill="white"/>
</svg>
