<svg width="55" height="68" viewBox="0 0 55 68" fill="none" xmlns="http://www.w3.org/2000/svg">
<path d="M13.5692 38.7168L12.2851 37.8628L11.467 39.1701C8.95789 43.1794 6.60046 48.3008 7.16064 53.0309C7.44892 55.4652 8.50668 57.7586 10.614 59.6649C12.6927 61.5452 15.7132 62.9788 19.8288 63.8907C23.857 64.7832 27.1341 64.7772 29.7624 63.9924C32.4286 63.1963 34.3305 61.6261 35.6035 59.5985C38.0745 55.6629 38.0866 50.1561 37.4783 45.4974L37.2939 44.0852L35.8741 44.1962C32.8107 44.4355 29.2284 44.1198 25.1129 43.2079C20.2531 42.1311 16.4243 40.6156 13.5692 38.7168Z" fill="#FFDF48" stroke="#383736" stroke-width="3"/>
<mask id="path-2-outside-1_7_26" maskUnits="userSpaceOnUse" x="0.611511" y="-3.57793" width="57.7906" height="55.5106" fill="black">
<rect fill="white" x="0.611511" y="-3.57793" width="57.7906" height="55.5106"/>
<path d="M41.6637 8.40798C41.984 9.07432 42.0962 9.88055 41.8915 10.8044C40.8304 15.5935 33.4038 13.9477 34.4648 9.15887C34.938 7.02308 36.6773 6.168 38.3652 6.29981C36.9011 5.55476 35.329 4.98233 33.6641 4.61344C25.5844 2.82323 17.457 6.26825 12.3922 12.7914C14.9028 13.506 16.0694 16.3569 15.53 18.7913C14.9736 21.3028 12.5821 23.4504 9.90338 22.8568C9.15786 22.6917 8.52259 22.3429 8.00527 21.8724C7.95302 22.0824 7.90283 22.2932 7.85572 22.5059C5.50714 33.1057 11.1764 39.7676 25.1875 42.872C39.1987 45.9764 47.1514 42.3327 49.5 31.7329C51.5315 22.5633 48.1826 13.5279 41.6637 8.40798ZM24.98 33.8933C22.4182 38.826 13.2163 34.0389 15.7761 29.1103C18.3402 24.1793 27.5421 28.9662 24.98 33.8933C23.9112 35.9515 26.0493 31.8371 24.98 33.8933ZM20.9586 15.7749C22.2746 9.83552 32.402 12.0794 31.086 18.0188C29.7696 23.9599 19.6423 21.716 20.9586 15.7749ZM30.7811 35.9987C29.3865 30.843 38.2853 28.4376 39.6812 33.5909L39.6821 33.5942C41.0736 38.7492 32.1746 41.155 30.7811 35.9987ZM46.5894 26.609C45.8222 27.8177 46.2047 27.215 46.5881 26.6111C45.3319 28.5881 42.6877 29.9675 40.4267 28.8198C37.8633 27.5185 37.8138 24.0966 39.1965 21.9182C40.4524 19.9397 43.0979 18.5587 45.3599 19.7074C47.9223 21.0085 47.9718 24.4288 46.5903 26.6072C46.9738 26.0034 47.3556 25.4018 46.5894 26.609Z"/>
</mask>
<path d="M41.6637 8.40798C41.984 9.07432 42.0962 9.88055 41.8915 10.8044C40.8304 15.5935 33.4038 13.9477 34.4648 9.15887C34.938 7.02308 36.6773 6.168 38.3652 6.29981C36.9011 5.55476 35.329 4.98233 33.6641 4.61344C25.5844 2.82323 17.457 6.26825 12.3922 12.7914C14.9028 13.506 16.0694 16.3569 15.53 18.7913C14.9736 21.3028 12.5821 23.4504 9.90338 22.8568C9.15786 22.6917 8.52259 22.3429 8.00527 21.8724C7.95302 22.0824 7.90283 22.2932 7.85572 22.5059C5.50714 33.1057 11.1764 39.7676 25.1875 42.872C39.1987 45.9764 47.1514 42.3327 49.5 31.7329C51.5315 22.5633 48.1826 13.5279 41.6637 8.40798ZM24.98 33.8933C22.4182 38.826 13.2163 34.0389 15.7761 29.1103C18.3402 24.1793 27.5421 28.9662 24.98 33.8933C23.9112 35.9515 26.0493 31.8371 24.98 33.8933ZM20.9586 15.7749C22.2746 9.83552 32.402 12.0794 31.086 18.0188C29.7696 23.9599 19.6423 21.716 20.9586 15.7749ZM30.7811 35.9987C29.3865 30.843 38.2853 28.4376 39.6812 33.5909L39.6821 33.5942C41.0736 38.7492 32.1746 41.155 30.7811 35.9987ZM46.5894 26.609C45.8222 27.8177 46.2047 27.215 46.5881 26.6111C45.3319 28.5881 42.6877 29.9675 40.4267 28.8198C37.8633 27.5185 37.8138 24.0966 39.1965 21.9182C40.4524 19.9397 43.0979 18.5587 45.3599 19.7074C47.9223 21.0085 47.9718 24.4288 46.5903 26.6072C46.9738 26.0034 47.3556 25.4018 46.5894 26.609Z" fill="#FFDF48"/>
<path d="M41.6637 8.40798L43.5167 6.04866L38.9598 9.70772L41.6637 8.40798ZM38.3652 6.29981L38.1316 9.2907L39.7258 3.6261L38.3652 6.29981ZM12.3922 12.7914L10.0226 10.9515L7.29797 14.4606L11.5709 15.6768L12.3922 12.7914ZM8.00527 21.8724L10.0238 19.653L6.30714 16.2726L5.09404 21.148L8.00527 21.8724ZM49.5 31.7329L52.429 32.3818L52.429 32.3818L49.5 31.7329ZM24.98 33.8933L22.3184 32.5092L22.3177 32.5106L24.98 33.8933ZM15.7761 29.1103L13.1144 27.7262L13.1137 27.7276L15.7761 29.1103ZM30.7811 35.9987L33.6772 35.216L33.677 35.2153L30.7811 35.9987ZM39.6812 33.5909L42.5772 32.8079L42.5768 32.8065L39.6812 33.5909ZM39.6821 33.5942L42.5784 32.8124L42.5781 32.8113L39.6821 33.5942ZM46.5894 26.609L49.1223 28.2167L49.1224 28.2165L46.5894 26.609ZM46.5881 26.6111L49.1209 28.2188L44.0559 25.0022L46.5881 26.6111ZM40.4267 28.8198L39.0687 31.4948L39.0688 31.4949L40.4267 28.8198ZM39.1965 21.9182L36.6637 20.3104L36.6636 20.3105L39.1965 21.9182ZM45.3599 19.7074L44.0015 22.3822L44.0017 22.3823L45.3599 19.7074ZM46.5903 26.6072L44.0568 25.0005L49.1226 28.2156L46.5903 26.6072ZM38.9598 9.70772C38.9726 9.73426 38.9853 9.77016 38.9912 9.82634C38.9973 9.88331 38.9993 9.98941 38.9625 10.1554L44.8204 11.4533C45.162 9.91182 44.9958 8.41539 44.3675 7.10824L38.9598 9.70772ZM38.9625 10.1554C38.9153 10.3687 38.8516 10.4685 38.823 10.5067C38.794 10.5455 38.7624 10.5726 38.7168 10.5971C38.6072 10.6558 38.3614 10.7175 38.0314 10.6444C37.7013 10.5713 37.5046 10.4115 37.43 10.3119C37.399 10.2705 37.3818 10.2325 37.3719 10.1851C37.3621 10.1384 37.3465 10.0211 37.3938 9.80783L31.5358 8.50991C31.0868 10.5366 31.5247 12.4355 32.6268 13.9076C33.6794 15.3138 35.2067 16.164 36.7333 16.5023C38.2599 16.8406 40.0035 16.7151 41.5516 15.8851C43.1724 15.0163 44.3714 13.4801 44.8204 11.4533L38.9625 10.1554ZM37.3938 9.80783C37.4362 9.61615 37.4919 9.5171 37.5215 9.47334C37.5508 9.43001 37.5788 9.40467 37.6095 9.38445C37.6783 9.33917 37.8502 9.26873 38.1316 9.2907L38.5987 3.30891C37.1922 3.19908 35.6506 3.49028 34.3094 4.37353C32.9226 5.28687 31.9331 6.71679 31.5358 8.50991L37.3938 9.80783ZM39.7258 3.6261C38.0407 2.76856 36.2299 2.10917 34.3131 1.68448L33.0152 7.54241C34.4282 7.85549 35.7615 8.34096 37.0046 8.97352L39.7258 3.6261ZM34.3131 1.68448C24.9649 -0.386772 15.7087 3.62817 10.0226 10.9515L14.7618 14.6312C19.2052 8.90833 26.2038 6.03324 33.0152 7.54241L34.3131 1.68448ZM11.5709 15.6768C11.8766 15.7638 12.1794 15.9904 12.407 16.4585C12.6477 16.9535 12.7249 17.5835 12.6011 18.1424L18.459 19.4403C19.2363 15.9322 17.6802 11.1773 13.2134 9.90597L11.5709 15.6768ZM12.6011 18.1424C12.473 18.7206 12.1183 19.2736 11.675 19.6171C11.2633 19.9361 10.8893 20.0025 10.5523 19.9279L9.25442 25.7858C14.0342 26.8449 17.6616 23.0394 18.459 19.4403L12.6011 18.1424ZM10.5523 19.9279C10.3429 19.8815 10.174 19.7897 10.0238 19.653L5.98672 24.0917C6.87115 24.8961 7.97285 25.5019 9.25442 25.7858L10.5523 19.9279ZM5.09404 21.148C5.0369 21.3776 4.98054 21.6142 4.92676 21.8569L10.7847 23.1548C10.8251 22.9723 10.8691 22.7871 10.9165 22.5968L5.09404 21.148ZM4.92676 21.8569C3.60171 27.8372 4.47589 33.183 8.10204 37.444C11.5933 41.5466 17.2641 44.1892 24.5385 45.8009L25.8364 39.943C19.0997 38.4504 14.9303 36.2099 12.6714 33.5554C10.5473 31.0595 9.76115 27.7744 10.7847 23.1548L4.92676 21.8569ZM24.5385 45.8009C31.8129 47.4127 38.0693 47.4128 42.9668 45.1689C48.0535 42.8384 51.1039 38.3622 52.429 32.3818L46.571 31.0839C45.5475 35.7034 43.4473 38.349 40.4676 39.7142C37.2988 41.166 32.5732 41.4357 25.8364 39.943L24.5385 45.8009ZM52.429 32.3818C54.699 22.1358 50.9822 11.912 43.5167 6.04866L39.8107 10.7673C45.3829 15.1437 48.3641 22.9908 46.571 31.084L52.429 32.3818ZM22.3177 32.5106C22.1709 32.7932 22.0087 32.9031 21.6797 32.9498C21.242 33.0119 20.5616 32.9125 19.8414 32.5381C19.1213 32.1637 18.6482 31.6633 18.4469 31.2682C18.2951 30.9703 18.2925 30.774 18.4384 30.493L13.1137 27.7276C11.9798 29.9109 12.1676 32.1612 13.1012 33.9929C13.9853 35.7275 15.4929 37.0397 17.0735 37.8615C18.6541 38.6833 20.5945 39.1639 22.5227 38.8902C24.5595 38.6012 26.5082 37.4597 27.6424 35.276L22.3177 32.5106ZM18.4377 30.4944C18.5846 30.2119 18.7472 30.1016 19.0771 30.0548C19.5155 29.9927 20.1963 30.0923 20.9165 30.4667C21.6367 30.8412 22.1094 31.3414 22.3104 31.7359C22.4617 32.033 22.4643 32.2285 22.3184 32.5092L27.6417 35.2773C28.7768 33.0945 28.5899 30.844 27.6564 29.0119C26.7725 27.2772 25.2649 25.9651 23.6843 25.1433C22.1038 24.3215 20.1635 23.841 18.2354 24.1142C16.1988 24.4027 14.2496 25.5432 13.1144 27.7262L18.4377 30.4944ZM27.6416 35.2774C27.7753 35.0204 27.8586 34.8602 27.9043 34.7724C27.9157 34.7505 27.9247 34.7333 27.9315 34.7203C27.9384 34.7069 27.9426 34.699 27.9446 34.6952C27.945 34.6943 27.9451 34.6941 27.945 34.6944C27.9449 34.6945 27.9446 34.695 27.9442 34.6958C27.9439 34.6964 27.9431 34.698 27.942 34.7001C27.9415 34.701 27.9402 34.7034 27.9395 34.7047C27.9385 34.7066 27.936 34.7113 27.9345 34.7141C27.9321 34.7185 27.9252 34.7314 27.9207 34.7397C27.9092 34.7606 27.813 34.9211 27.7211 35.056C23.8108 35.9106 22.5584 32.0568 22.5868 31.9962C22.5942 31.9811 22.605 31.9593 22.6083 31.9526C22.6103 31.9487 22.6135 31.9424 22.6147 31.94C22.6156 31.9383 22.6171 31.9353 22.6177 31.9341C22.619 31.9316 22.6199 31.9297 22.6203 31.929C22.6208 31.9281 22.6211 31.9274 22.6213 31.9272C22.6215 31.9267 22.6215 31.9267 22.6211 31.9274C22.6204 31.9288 22.6192 31.9312 22.6172 31.9349C22.6095 31.9499 22.5954 31.9771 22.5761 32.0143C22.5569 32.0512 22.533 32.0973 22.5059 32.1494C22.4517 32.2537 22.385 32.3822 22.3182 32.5106C22.2514 32.6391 22.1847 32.7675 22.1305 32.8717C22.1034 32.9238 22.0795 32.9698 22.0603 33.0067C22.041 33.0439 22.0268 33.071 22.0191 33.0859C22.0172 33.0896 22.0159 33.092 22.0152 33.0934C22.0148 33.0941 22.0148 33.094 22.0151 33.0936C22.0152 33.0933 22.0156 33.0926 22.0161 33.0917C22.0165 33.0909 22.0175 33.089 22.0189 33.0864C22.0195 33.0852 22.0211 33.0821 22.022 33.0804C22.0234 33.0779 22.0269 33.0713 22.0291 33.0672C22.033 33.0601 22.046 33.0363 22.0552 33.0198C22.0992 32.9439 26.0313 31.8135 27.4674 35.5754C27.4252 35.6782 27.3701 35.7981 27.361 35.8168C27.3571 35.8246 27.3511 35.8367 27.3489 35.8409C27.3476 35.8436 27.3453 35.8481 27.3444 35.8499C27.3437 35.8512 27.3425 35.8535 27.3421 35.8545C27.341 35.8565 27.3402 35.858 27.3399 35.8586C27.3395 35.8593 27.3393 35.8598 27.3392 35.86C27.3391 35.8602 27.3392 35.86 27.3396 35.8592C27.3416 35.8553 27.3458 35.8473 27.3527 35.8339C27.3595 35.8208 27.3685 35.8036 27.3799 35.7816C27.4255 35.6936 27.5088 35.5332 27.6424 35.2759L22.3176 32.5106C22.184 32.7679 22.1003 32.9291 22.0541 33.0181C22.0426 33.0404 22.0333 33.0583 22.0261 33.0722C22.0191 33.0857 22.0136 33.0963 22.0099 33.1035C22.0089 33.1054 22.0078 33.1075 22.0067 33.1096C22.0062 33.1107 22.0055 33.112 22.0048 33.1134C22.0041 33.1147 22.003 33.1168 22.0017 33.1193C22.0011 33.1205 21.9998 33.123 21.9991 33.1245C21.9981 33.1264 21.9957 33.1311 21.9943 33.1339C21.9921 33.1383 21.986 33.1505 21.9821 33.1583C21.9729 33.1771 21.9179 33.297 21.8757 33.3999C23.3118 37.1618 27.2439 36.0314 27.2879 35.9555C27.2971 35.9389 27.3102 35.915 27.3141 35.9078C27.3163 35.9036 27.3199 35.8969 27.3213 35.8942C27.3223 35.8923 27.324 35.8891 27.3248 35.8877C27.3264 35.8847 27.3276 35.8823 27.3284 35.8809C27.3292 35.8793 27.3299 35.878 27.3305 35.8769C27.3316 35.8747 27.3327 35.8727 27.3336 35.8709C27.3354 35.8674 27.3376 35.8633 27.3398 35.8589C27.3488 35.8417 27.3639 35.8126 27.3832 35.7756C27.4027 35.7382 27.4268 35.6918 27.454 35.6395C27.5084 35.5348 27.5753 35.4061 27.6422 35.2774C27.7091 35.1488 27.776 35.02 27.8303 34.9153C27.8575 34.863 27.8816 34.8166 27.9011 34.7791C27.9204 34.742 27.9355 34.7129 27.9444 34.6956C27.9467 34.6912 27.9488 34.6871 27.9507 34.6836C27.9516 34.6818 27.9526 34.6797 27.9537 34.6776C27.9543 34.6765 27.955 34.6752 27.9558 34.6736C27.9565 34.6722 27.9577 34.6698 27.9592 34.6669C27.9599 34.6655 27.9615 34.6624 27.9625 34.6605C27.9638 34.658 27.967 34.6515 27.969 34.6476C27.9725 34.6407 27.9833 34.6188 27.9906 34.6037C28.0191 34.5431 26.7667 30.6892 22.8564 31.5438C22.7645 31.6788 22.6683 31.8393 22.6568 31.8602C22.6522 31.8686 22.6452 31.8816 22.6428 31.8862C22.6412 31.889 22.6386 31.8939 22.6376 31.8959C22.6368 31.8974 22.6354 31.9 22.6348 31.9012C22.6334 31.9037 22.6323 31.9059 22.6316 31.9072C22.6309 31.9086 22.6302 31.9099 22.6296 31.911C22.6285 31.9131 22.6274 31.9152 22.6265 31.9171C22.6227 31.9243 22.6172 31.9349 22.6101 31.9483C22.603 31.9622 22.5937 31.98 22.5821 32.0022C22.5359 32.091 22.4521 32.2521 22.3184 32.5091L27.6416 35.2774ZM23.8876 16.4238C24.0093 15.8744 24.2611 15.6412 24.5742 15.4917C24.9789 15.2984 25.625 15.2083 26.3603 15.3713C27.0957 15.5342 27.6433 15.8887 27.9284 16.2348C28.149 16.5027 28.2788 16.8203 28.157 17.3698L34.015 18.6677C34.5512 16.2475 33.9085 14.0575 32.5593 12.4197C31.2745 10.8602 29.4547 9.91139 27.6582 9.51334C25.8618 9.1153 23.8115 9.20669 21.9883 10.0775C20.0735 10.9921 18.5659 12.7057 18.0296 15.1259L23.8876 16.4238ZM28.157 17.3698C28.0351 17.9201 27.783 18.1535 27.4698 18.3032C27.0651 18.4965 26.4192 18.5866 25.684 18.4237C24.9488 18.2608 24.4014 17.9063 24.1163 17.5601C23.8956 17.2922 23.7657 16.9741 23.8876 16.4238L18.0296 15.1259C17.4934 17.5462 18.1357 19.7365 19.4849 21.3746C20.7696 22.9344 22.5894 23.8835 24.3861 24.2816C26.1828 24.6797 28.2332 24.5881 30.0565 23.7169C31.9713 22.802 33.4787 21.088 34.015 18.6677L28.157 17.3698ZM33.677 35.2153C33.5823 34.8654 33.6522 34.7007 33.7772 34.5358C33.9646 34.2887 34.3718 33.9861 34.9678 33.8249C35.5638 33.6637 36.0686 33.7198 36.3557 33.8389C36.5477 33.9186 36.6909 34.0261 36.7855 34.3752L42.5768 32.8065C41.9735 30.579 40.4809 29.0547 38.6554 28.2971C36.925 27.5791 35.0305 27.5925 33.4016 28.0329C31.7727 28.4734 30.1295 29.4167 28.997 30.9096C27.8021 32.4848 27.2825 34.5541 27.8851 36.782L33.677 35.2153ZM36.7851 34.3738L36.786 34.3771L42.5781 32.8113L42.5772 32.8079L36.7851 34.3738ZM36.7857 34.3761C36.8801 34.7255 36.8104 34.8904 36.6848 35.0558C36.497 35.3033 36.0893 35.606 35.4933 35.7671C34.8973 35.9281 34.393 35.8719 34.1065 35.7528C33.9152 35.6734 33.7718 35.5661 33.6772 35.216L27.885 36.7813C28.4871 39.0094 29.9786 40.535 31.8044 41.2936C33.5349 42.0126 35.4296 41.9995 37.0586 41.5593C38.6876 41.1191 40.3309 40.1761 41.4638 38.6837C42.659 37.1093 43.1799 35.0405 42.5784 32.8124L36.7857 34.3761ZM44.0566 25.0012C43.8648 25.3034 43.7449 25.4923 43.6788 25.5963C43.6458 25.6484 43.6263 25.679 43.6181 25.692C43.616 25.6953 43.6148 25.6971 43.6144 25.6979C43.61 25.7047 43.6166 25.6944 43.6219 25.6861C43.6404 25.6576 47.778 24.7902 48.693 28.8927C48.689 28.8991 48.6839 28.9073 48.6828 28.909C48.6823 28.9098 48.6814 28.9111 48.6812 28.9116C48.681 28.9119 48.6806 28.9124 48.6805 28.9126C48.6801 28.9132 48.6799 28.9136 48.68 28.9134C48.6808 28.9121 48.6841 28.9069 48.6902 28.8973C48.7378 28.8223 48.9292 28.5208 49.1209 28.2188L44.0553 25.0033C43.8636 25.3053 43.672 25.607 43.6243 25.6822C43.6185 25.6914 43.6144 25.6978 43.6129 25.7003C43.6127 25.7006 43.6122 25.7013 43.6117 25.7022C43.6116 25.7022 43.6106 25.7039 43.6093 25.7059C43.6082 25.7077 43.6031 25.7158 43.5991 25.7222C44.5141 29.8248 48.6516 28.9574 48.6701 28.9289C48.6721 28.9258 48.6748 28.9216 48.6755 28.9204C48.6759 28.9198 48.6766 28.9188 48.6768 28.9184C48.6773 28.9176 48.6777 28.917 48.6778 28.9168C48.6782 28.9162 48.6786 28.9157 48.6788 28.9153C48.6797 28.9138 48.6813 28.9113 48.6834 28.9081C48.6918 28.8949 48.7114 28.8639 48.7444 28.8119C48.8105 28.7079 48.9304 28.5189 49.1223 28.2167L44.0566 25.0012ZM44.0559 25.0022C43.7465 25.4893 43.2501 25.9061 42.7522 26.109C42.29 26.2973 41.9917 26.2498 41.7845 26.1446L39.0688 31.4949C41.1227 32.5374 43.277 32.3741 45.0162 31.6654C46.7197 30.9713 48.1735 29.7099 49.1202 28.2199L44.0559 25.0022ZM41.7847 26.1447C41.5622 26.0318 41.3717 25.8342 41.309 25.3288C41.2378 24.7547 41.3967 24.0499 41.7293 23.5259L36.6636 20.3105C35.6136 21.9648 35.1058 24.0602 35.3546 26.067C35.6119 28.1425 36.7278 30.3065 39.0687 31.4948L41.7847 26.1447ZM41.7293 23.5259C42.0387 23.0385 42.5353 22.6212 43.0336 22.4181C43.496 22.2295 43.7944 22.2771 44.0015 22.3822L46.7182 17.0325C44.6634 15.989 42.508 16.1528 40.7682 16.8621C39.0642 17.5569 37.6101 18.8194 36.6637 20.3104L41.7293 23.5259ZM44.0017 22.3823C44.2239 22.4951 44.4142 22.6925 44.4769 23.1975C44.548 23.7714 44.3894 24.4761 44.0568 25.0005L49.1238 28.2139C50.1727 26.5599 50.6801 24.4653 50.4313 22.4591C50.1739 20.3841 49.0583 18.2207 46.718 17.0324L44.0017 22.3823ZM49.1226 28.2156C49.314 27.9144 49.5066 27.611 49.5534 27.5373C49.5563 27.5327 49.5587 27.529 49.5604 27.5263C49.5623 27.5233 49.563 27.5223 49.5629 27.5224C49.5628 27.5225 49.5626 27.5228 49.5624 27.5231C49.5622 27.5234 49.5618 27.5241 49.5612 27.5251C49.5608 27.5256 49.5601 27.5268 49.5596 27.5275C49.5589 27.5286 49.557 27.5316 49.5558 27.5335C49.5532 27.5376 49.541 27.5563 49.5313 27.571C45.4824 28.4799 44.4381 24.4045 44.4792 24.3357C44.4837 24.3285 44.4899 24.3185 44.4916 24.3158C44.4926 24.3144 44.494 24.312 44.4946 24.3111C44.4956 24.3096 44.4963 24.3084 44.4965 24.308C44.4969 24.3075 44.4971 24.3072 44.4972 24.307C44.4973 24.3068 44.4974 24.3067 44.4974 24.3067C44.4974 24.3067 44.4972 24.307 44.4965 24.308C44.496 24.3089 44.4952 24.3102 44.4942 24.3117C44.4861 24.3245 44.4668 24.3549 44.4337 24.407C44.3678 24.5109 44.2481 24.6996 44.0565 25.0014L49.1224 28.2165C49.3139 27.9148 49.4337 27.726 49.4997 27.622C49.5326 27.5702 49.5523 27.5391 49.5608 27.5257C49.5628 27.5225 49.5646 27.5196 49.5659 27.5177C49.5662 27.5172 49.5668 27.5162 49.5676 27.515C49.5679 27.5145 49.5687 27.5132 49.5697 27.5116C49.5703 27.5106 49.5718 27.5083 49.5727 27.5068C49.5745 27.504 49.5807 27.494 49.5852 27.4868C49.6264 27.4181 48.582 23.3426 44.5331 24.2515C44.5235 24.2662 44.5112 24.285 44.5086 24.2891C44.5056 24.2938 44.5031 24.2977 44.5031 24.2977C44.5019 24.2995 44.501 24.301 44.5008 24.3014C44.4987 24.3046 44.4941 24.3119 44.4885 24.3206C44.4401 24.3969 44.2501 24.6962 44.0579 24.9987L49.1226 28.2156Z" fill="#383736" mask="url(#path-2-outside-1_7_26)"/>
</svg>
