<svg width="47" height="39" viewBox="0 0 47 39" fill="none" xmlns="http://www.w3.org/2000/svg">
<path d="M45.933 9.03398L40.9806 1.14258C40.538 0.43418 39.7521 0 38.9127 0H8.08433C7.24495 0 6.45898 0.43418 6.01639 1.14258L1.06401 9.03398C-1.4923 13.1092 0.774045 18.7764 5.55091 19.4238C5.8943 19.4695 6.24531 19.4924 6.59633 19.4924C8.85504 19.4924 10.8543 18.5021 12.2278 16.9711C13.6014 18.5021 15.6083 19.4924 17.8594 19.4924C20.1181 19.4924 22.1173 18.5021 23.4909 16.9711C24.8644 18.5021 26.8713 19.4924 29.1224 19.4924C31.3811 19.4924 33.3804 18.5021 34.7539 16.9711C36.1351 18.5021 38.1343 19.4924 40.3854 19.4924C40.7441 19.4924 41.0875 19.4695 41.4308 19.4238C46.223 18.784 48.4969 13.1168 45.933 9.03398V9.03398ZM40.4007 21.9375C39.6376 21.9375 38.8822 21.8232 38.1496 21.648V29.25H8.84741V21.648C8.11485 21.8156 7.35941 21.9375 6.59633 21.9375C6.13848 21.9375 5.67301 21.907 5.22279 21.8461C4.79547 21.7852 4.37577 21.6861 3.97134 21.5719V36.5625C3.97134 37.9107 5.06254 39 6.41319 39H40.5991C41.9497 39 43.0409 37.9107 43.0409 36.5625V21.5719C42.6289 21.6938 42.2168 21.7928 41.7895 21.8461C41.324 21.907 40.8662 21.9375 40.4007 21.9375Z" fill="#FBFBFB"/>
</svg>
