<?xml version="1.0" encoding="iso-8859-1"?>
<!-- Generator: Adobe Illustrator 19.0.0, SVG Export Plug-In . SVG Version: 6.00 Build 0)  -->
<svg version="1.1" id="Layer_1" xmlns="http://www.w3.org/2000/svg" xmlns:xlink="http://www.w3.org/1999/xlink" x="0px" y="0px"
	 viewBox="0 0 479.995 479.995" style="enable-background:new 0 0 479.995 479.995;" xml:space="preserve">
<g transform="translate(0 -1020.36)">
	<g shape-rendering="auto" image-rendering="auto" color-rendering="auto" color-interpolation="sRGB">
		<path style="fill:#484666;" d="M238.851,1112.346c-26.699-1.039-53.848,4.959-79.667,11.395
			c-68.043,18.094-106.466,90.563-77.357,155.17c23.522,52.207,53.348,107.096,79.825,160.264
			c19.859,39.875,51.793,61.344,84.199,61.18c32.406-0.176,63.707-22.008,81.95-62.711c23.913-53.354,47.822-106.807,71.796-160.014
			c14.958-33.197,8.823-66.42-9.56-93.176c-2.324-3.426-4.642-6.084-6.844-8.969c-18.578-22.482-45.664-40.285-75.826-51.463
			c-23.699-7.111-48.054-11.461-68.515-11.674L238.851,1112.346z"/>
		<path style="fill:#37B89E;" d="M238.788,1128.344c23.072-0.004,44.075,3.568,63.048,10.594
			c16.827,6.234,32.431,14.813,45.833,24.934l-16.684-4.746c-8.376-2.389-17.341,0.912-22.182,8.154l-6.967,10.404l-44.052-25.029
			c-5.834-3.314-13.022-3.494-19.027-0.48L189.3,1176.86l-2.593-10.404c-2.717-10.838-14.029-17.463-24.807-14.529
			c-0.083-0.002-0.165-0.002-0.248,0l0,0l-45.021,13.717c12.355-12.209,28.217-21.557,46.677-26.465
			c27.249-7.246,52.41-10.836,75.482-10.842L238.788,1128.344z"/>
		<path style="fill:#D87070;" d="M247.942,1166.028c0.668,0,1.332,0.24,1.937,0.545l50.426,28.686
			c3.639,2.094,8.278,1.016,10.622-2.467l11.216-16.654c1.007-1.504,2.703-2.158,4.467-1.658l45.552,12.938
			c1.602,2.014,3.233,4.021,4.655,6.094c15.945,23.207,20.846,49.223,8.123,77.459c-23.991,53.248-47.767,106.68-71.671,160.014
			c-16.376,36.535-42.079,53.271-67.422,53.4c-25.343,0.16-51.899-16.465-69.765-52.338
			c-26.653-53.521-56.44-108.377-79.606-159.795c-13.142-29.168-10.373-59.828,3.624-84.771l66.047-20.094
			c2.338-0.641,4.513,0.656,5.092,2.969l4.936,19.936c1.084,4.283,5.435,6.877,9.717,5.793c0.562-0.143,1.106-0.346,1.624-0.605
			l58.455-29.027c0.621-0.305,1.3-0.48,1.968-0.416L247.942,1166.028z"/>
	</g>
	<g>
		<path style="fill:#484666;" d="M152.05,1220.358c-0.001,4.418-3.591,7.998-8.02,7.998s-8.02-3.58-8.02-7.998
			c0-4.418,3.59-8,8.019-8c0,0,0.001,0,0.001,0C148.459,1212.358,152.05,1215.94,152.05,1220.358L152.05,1220.358z"/>
		<path style="fill:#484666;" d="M248.005,1220.358c-0.001,4.418-3.581,7.998-7.998,7.998c-4.417,0-7.998-3.58-7.998-7.998
			c0-4.418,3.58-8,7.997-8c0,0,0.001,0,0.001,0C244.424,1212.358,248.005,1215.94,248.005,1220.358L248.005,1220.358z"/>
		<path style="fill:#484666;" d="M343.982,1220.358c-0.001,4.418-3.581,7.998-7.998,7.998c-4.417,0-7.998-3.58-7.998-7.998
			c0-4.418,3.58-8,7.997-8c0,0,0.001,0,0.001,0C340.401,1212.358,343.982,1215.94,343.982,1220.358L343.982,1220.358z"/>
		<path style="fill:#484666;" d="M200.016,1268.354c0,4.418-3.58,8-7.997,8c0,0-0.001,0-0.001,0c-4.417,0-7.998-3.582-7.998-8l0,0
			c0.001-4.418,3.581-7.998,7.998-7.998S200.016,1263.936,200.016,1268.354z"/>
		<path style="fill:#484666;" d="M296.285,1268.366c0,4.418-3.59,8-8.019,8c0,0-0.001,0-0.001,0c-4.429,0-8.02-3.582-8.02-8l0,0
			c0.001-4.418,3.591-7.998,8.02-7.998S296.284,1263.948,296.285,1268.366z"/>
		<path style="fill:#484666;" d="M248.005,1316.348c-0.001,4.418-3.581,7.998-7.998,7.998c-4.417,0-7.998-3.58-7.998-7.998
			c0-4.418,3.58-8,7.997-8c0,0,0.001,0,0.001,0C244.424,1308.348,248.005,1311.93,248.005,1316.348L248.005,1316.348z"/>
		<path style="fill:#484666;" d="M152.027,1308.348c-0.001,4.418-3.581,7.998-7.998,7.998s-7.998-3.58-7.998-7.998
			c0-4.418,3.58-8,7.997-8c0,0,0.001,0,0.001,0C148.447,1300.348,152.027,1303.93,152.027,1308.348L152.027,1308.348z"/>
		<path style="fill:#484666;" d="M343.982,1308.348c-0.001,4.418-3.581,7.998-7.998,7.998c-4.417,0-7.998-3.58-7.998-7.998
			c0-4.418,3.58-8,7.997-8c0,0,0.001,0,0.001,0C340.401,1300.348,343.982,1303.93,343.982,1308.348L343.982,1308.348z"/>
		<path style="fill:#484666;" d="M200.016,1364.342c-0.001,4.418-3.581,7.998-7.998,7.998s-7.998-3.58-7.998-7.998
			c0-4.418,3.58-8,7.997-8c0,0,0.001,0,0.001,0C196.435,1356.342,200.016,1359.924,200.016,1364.342L200.016,1364.342z"/>
		<path style="fill:#484666;" d="M295.994,1364.342c-0.001,4.418-3.581,7.998-7.998,7.998s-7.998-3.58-7.998-7.998
			c0-4.418,3.58-8,7.997-8c0,0,0.001,0,0.001,0C292.413,1356.342,295.994,1359.924,295.994,1364.342L295.994,1364.342z"/>
		<path style="fill:#484666;" d="M248.005,1412.339c0,4.418-3.58,8-7.997,8c0,0-0.001,0-0.001,0c-4.417,0-7.998-3.582-7.998-8l0,0
			c0.001-4.418,3.581-7.998,7.998-7.998C244.423,1404.34,248.004,1407.921,248.005,1412.339z"/>
		<g>
			<path style="fill:#484666;" d="M104.033,1268.444c0,4.418-3.581,7.999-7.998,7.999c0,0,0,0,0,0c-4.417,0-7.998-3.582-7.998-7.999
				l0,0c0-4.417,3.581-7.999,7.998-7.999c0,0,0,0,0,0C100.452,1260.445,104.033,1264.027,104.033,1268.444L104.033,1268.444z"/>
		</g>
		
			<path shape-rendering="auto" image-rendering="auto" color-rendering="auto" color-interpolation="sRGB" style="fill:#484666;" d="
			M277.42,1020.36c-29.362,0-53.255,23.923-53.255,53.262v42.75c-0.453,4.402,2.749,8.338,7.151,8.791s8.338-2.748,8.791-7.15
			c0.056-0.545,0.056-1.096,0-1.641v-42.75c0-20.664,16.599-37.201,37.314-37.201h2.716c4.434-0.029,8.005-3.648,7.976-8.083
			c-0.029-4.394-3.583-7.948-7.976-7.978H277.42z"/>
		<g>
			<path style="fill:#484666;" d="M208.009,1468.422c0,4.418-3.591,7.999-8.02,7.999c0,0,0,0,0,0c-4.429,0-8.02-3.582-8.02-7.999
				l0,0c0-4.417,3.591-7.999,8.02-7.999c0,0,0,0,0,0C204.418,1460.422,208.009,1464.004,208.009,1468.422L208.009,1468.422z"/>
		</g>
	</g>
	<g shape-rendering="auto" image-rendering="auto" color-rendering="auto" color-interpolation="sRGB">
		<path style="fill:#BD5858;" d="M247.935,1166.038c-0.668,0-1.348,0.16-1.969,0.4l-2.313,1.152l48.594,27.654
			c2.475,1.43,5.525,1.43,8,0l-50.375-28.654c-0.605-0.305-1.27-0.512-1.938-0.527V1166.038z M166.154,1167.381l-4.188,1.279
			c0.477,0.512,1.03,0.928,1.219,1.686l4.937,19.936c1.083,4.283,5.434,6.877,9.716,5.793c0.563-0.143,1.109-0.346,1.627-0.605
			l0.469-0.225c-1.87-1.082-3.222-2.875-3.75-4.969l-4.938-19.936c-0.58-2.309-2.756-3.604-5.094-2.969V1167.381z M326.623,1174.475
			c-1.507-0.432-2.886,0.16-3.906,1.184l41.406,11.75c1.602,2.014,3.234,4.021,4.656,6.094
			c15.945,23.207,20.848,49.227,8.125,77.465c-23.991,53.246-47.784,106.686-71.688,160.02
			c-15.561,34.721-39.532,51.359-63.625,53.059c1.419,0.16,2.837,0.352,4.25,0.352c25.343-0.16,51.062-16.865,67.438-53.402
			c23.904-53.334,47.665-106.773,71.656-160.02c12.723-28.236,7.82-54.256-8.125-77.465c-1.423-2.072-3.055-4.08-4.656-6.094
			L326.623,1174.475z"/>
		<path style="fill:#389F8A;" d="M238.779,1128.354c-1.468,0-3.015,0.16-4.5,0.191c21.283,0.432,40.85,3.846,58.562,10.406
			c14.332,5.311,27.673,12.377,39.625,20.592l15.188,4.344c-13.402-10.121-28.985-18.701-45.813-24.936
			c-18.972-7.025-39.99-10.598-63.063-10.594L238.779,1128.354z M239.341,1150.04c-3.277-0.16-6.591,0.623-9.594,2.125
			l-41.438,20.686l1,3.998l49.438-24.686c1.412-0.703,2.897-1.199,4.406-1.568c-1.264-0.271-2.523-0.527-3.813-0.561V1150.04z
			 M156.935,1151.256c-1.346,0-2.684,0.287-4.031,0.656c-0.083-0.002-0.167-0.002-0.25,0l0,0l-31.156,9.5
			c-1.623,1.408-3.357,2.719-4.875,4.219l45.031-13.719l0,0c0.083-0.002,0.167-0.002,0.25,0c0.083,0,0.167-0.012,0.25,0
			c-1.715-0.367-3.429-0.736-5.219-0.623L156.935,1151.256z M315.654,1158.381c-6.282,0.256-12.213,3.471-15.844,8.906l-4.5,6.688
			l6.531,3.719l6.969-10.406c2.967-4.441,7.519-7.174,12.5-8.25C319.437,1158.573,317.52,1158.301,315.654,1158.381z"/>
	</g>
	<g>
		<g>
			<path style="fill:#484666;" d="M391.988,1268.444c0,4.418-3.591,7.999-8.02,7.999c0,0,0,0,0,0c-4.43,0-8.02-3.582-8.02-7.999l0,0
				c0-4.417,3.591-7.999,8.02-7.999c0,0,0,0,0,0C388.397,1260.445,391.988,1264.027,391.988,1268.444L391.988,1268.444z"/>
		</g>
		<g>
			<path style="fill:#484666;" d="M295.988,1468.422c0,4.418-3.591,7.999-8.02,7.999c0,0,0,0,0,0c-4.43,0-8.02-3.582-8.02-7.999l0,0
				c0-4.417,3.591-7.999,8.02-7.999c0,0,0,0,0,0C292.397,1460.422,295.988,1464.004,295.988,1468.422L295.988,1468.422z"/>
		</g>
	</g>
</g>
<g>
</g>
<g>
</g>
<g>
</g>
<g>
</g>
<g>
</g>
<g>
</g>
<g>
</g>
<g>
</g>
<g>
</g>
<g>
</g>
<g>
</g>
<g>
</g>
<g>
</g>
<g>
</g>
<g>
</g>
</svg>
